<svg xmlns="http://www.w3.org/2000/svg" width="48" height="48" viewBox="0 0 48 48">
    <g fill="none" fill-rule="evenodd">
        <path fill="tranperant" d="M-160-796h1920V284H-160z"/>
        <path fill="#999" d="M33.546 25.873v-3.746h-7.673v-7.673h-3.746v7.673h-7.673v3.746h7.673v7.673h3.746v-7.673h7.673zM24 5c3.471 0 6.683.868 9.637 2.603a18.008 18.008 0 0 1 6.76 6.76C42.132 17.317 43 20.529 43 24s-.868 6.683-2.603 9.637a18.008 18.008 0 0 1-6.76 6.76C30.683 42.132 27.471 43 24 43s-6.683-.868-9.637-2.603c-2.862-1.675-5.115-3.943-6.76-6.806C5.868 30.638 5 27.441 5 24c0-3.44.868-6.638 2.603-9.591a18.7 18.7 0 0 1 6.806-6.806C17.362 5.868 20.559 5 24 5z"/>
    </g>
</svg>
