<svg xmlns="http://www.w3.org/2000/svg" width="80" height="80" viewBox="0 0 80 80">
    <path fill="#E6E6E6" fill-rule="evenodd" d="M55.82 62.873a34.758 34.758 0 0 1-20.908 6.951C15.632 69.824 0 54.194 0 34.912 0 15.63 15.631 0 34.912 0c19.282 0 34.912 15.63 34.912 34.912a34.76 34.76 0 0 1-6.95 20.908L80 72.948 72.948 80 55.82 62.873zm4.03-27.961c0 13.772-11.165 24.937-24.938 24.937-13.772 0-24.937-11.165-24.937-24.937 0-13.772 11.165-24.937 24.937-24.937 13.773 0 24.937 11.165 24.937 24.937z"/>
</svg>
