<svg xmlns="http://www.w3.org/2000/svg" width="100" height="100" viewBox="0 0 100 100">
    <path fill="#E6E6E6" fill-rule="nonzero" d="M45.802 0l-2.083 11.865.008.008a38.375 38.375 0 0 0-7.363 1.97v-.007l-7.73-9.237-7.267 4.198 4.126 11.312.016.008a38.892 38.892 0 0 0-5.392 5.4l-.008-.024-11.312-4.126-4.198 7.266 9.237 7.74a38.35 38.35 0 0 0-1.963 7.354l-.008-.008L0 45.802v8.396l11.865 2.083.008-.008a38.348 38.348 0 0 0 1.963 7.355l-9.237 7.739 4.198 7.266 11.312-4.126.008-.024a38.89 38.89 0 0 0 5.392 5.4l-.016.008-4.126 11.312 7.266 4.198 7.731-9.237v-.008a38.373 38.373 0 0 0 7.363 1.97l-.008.009L45.802 100h8.388l2.083-11.865-.008-.008a38.377 38.377 0 0 0 7.363-1.963l7.739 9.237 7.266-4.198L74.5 79.891a38.9 38.9 0 0 0 5.384-5.384l11.32 4.126 4.19-7.266-9.229-7.74a38.356 38.356 0 0 0 1.97-7.354L100 54.198v-8.396l-11.865-2.083a38.356 38.356 0 0 0-1.97-7.347l9.228-7.739-4.19-7.266-11.32 4.126a38.898 38.898 0 0 0-5.384-5.384l4.134-11.312-7.266-4.198-7.74 9.237a38.384 38.384 0 0 0-7.362-1.963l.008-.008L54.19 0h-8.388zM50 20.43c16.333 0 29.579 13.237 29.579 29.57S66.333 79.57 50 79.57 20.43 66.334 20.43 50 33.666 20.43 50 20.43z"/>
</svg>
