<svg xmlns="http://www.w3.org/2000/svg" width="100" height="88" viewBox="0 0 100 88">
    <path fill="#E6E6E6" fill-rule="nonzero" d="M67.265 80C79.172 72.224 87.06 58.781 87.06 43.53 87.059 19.526 67.532 0 43.529 0 19.527 0 0 19.527 0 43.53c0 24.002 19.527 43.529 43.53 43.529H100V80H67.265zM43.53 32.941c-5.838 0-10.588-4.75-10.588-10.588 0-5.838 4.75-10.588 10.588-10.588 5.839 0 10.589 4.75 10.589 10.588 0 5.838-4.75 10.588-10.589 10.588zm21.177 0c5.838 0 10.588 4.75 10.588 10.588 0 5.839-4.75 10.589-10.588 10.589-5.839 0-10.588-4.75-10.588-10.589 0-5.838 4.75-10.588 10.588-10.588zM32.94 43.53c0 5.839-4.75 10.589-10.588 10.589-5.838 0-10.588-4.75-10.588-10.589 0-5.838 4.75-10.588 10.588-10.588 5.838 0 10.588 4.75 10.588 10.588zM43.53 54.118c5.839 0 10.589 4.75 10.589 10.588 0 5.838-4.75 10.588-10.589 10.588-5.838 0-10.588-4.75-10.588-10.588 0-5.838 4.75-10.588 10.588-10.588z"/>
</svg>
